 http://img823.imageshack.us/img823/2421/1302812151kinopoiskruri.jpg

Country.......: Spain, USA
Genre.........: Horror, Thriller, Sci-Fi, Action, Adventure
Date release..: 09.03.1990 [World]
Director......: Juan Piquer Simon
Writers.......: Juan Piquer Simon, Mark Klein
Duration......: 80 min.
More..........: http://www.imdb.com/title/tt0099701
Trailer.......:

Pilot :
An experimental submarine, the "Siren II", with a very experienced crew is sent to find out what happened to the "Siren I", misteriously dissapeared in a submarine rift. Things go awry when they begin to find things that shouldn't be there...

Cats :
Jack Scalia   	 ...  	Wick Hayes
R. Lee Ermey 	... 	Capt. Phillips
Ray Wise 	... 	Robbins
Deborah Adair 	... 	Lt. Nina Crowley
John Toles-Bey 	... 	Joe Kane (as John Toles Bey)
Ely Pouget 	... 	Ana Rivera
Emilio Linder 	... 	Philippe
Tony Isbert 	... 	Fleming
Alvaro Labra 	... 	Carlo
Luis Lorenzo 	... 	Francisco
Frank Brana 	... 	Muller
Pocholo Martinez Bordiu 	... 	Sven (as J. Martinez Bordiu)
Edmund Purdom 	... 	CEO Steensland
Garrick Hagon 	... 	Barton (as Garick Hagon)
James Aubrey 	... 	Contek 1 

Data Technical :
!!! SAMPLE !!!
Audio.....: Lector Polish
Subtitles.: None
Format                           : AVI
Format/Info                      : Audio Video Interleave
File size                        : 604 MiB
Duration                         : 1h 19mn
Overall bit rate                 : 1 061 Kbps
Writing application              : Nandub v1.0rc2
Writing library                  : VirtualDub build 32593/release
Video
ID                               : 0
Format                           : MPEG-4 Visual
Format profile                   : Advanced Simple@L5
Format settings, BVOP            : No
Format settings, QPel            : No
Format settings, GMC             : No warppoints
Format settings, Matrix          : Custom
Codec ID                         : XVID
Codec ID/Hint                    : XviD
Duration                         : 1h 19mn
Bit rate                         : 924 Kbps
Width                            : 480 pixels
Height                           : 256 pixels
Display aspect ratio             : 1.875
Frame rate                       : 25.000 fps
Color space                      : YUV
Chroma subsampling               : 4:2:0
Bit depth                        : 8 bits
Scan type                        : Progressive
Bits/(Pixel*Frame)               : 0.301
Stream size                      : 525 MiB (87%)
Writing library                  : XviD 1.1.2 (UTC 2006-11-01)
Audio
ID                               : 1
Format                           : MPEG Audio
Format version                   : Version 1
Format profile                   : Layer 3
Mode                             : Joint stereo
Mode extension                   : MS Stereo
Codec ID                         : 55
Codec ID/Hint                    : MP3
Duration                         : 1h 19mn
Bit rate mode                    : Constant
Bit rate                         : 128 Kbps
Channel(s)                       : 2 channels
Sampling rate                    : 48.0 KHz
Video delay                      : 8s 120ms
Stream size                      : 72.8 MiB (12%)
Alignment                        : Split accross interleaves
Interleave, duration             : 40 ms (1.00 video frame)
Interleave, preload duration     : 500 ms

Screen : 
http://img90.imageshack.us/img90/5707/therift1990s1.jpg 
http://img87.imageshack.us/img87/6283/therift1990s2.jpg 
http://img832.imageshack.us/img832/706/therift1990s3.jpg 
http://img39.imageshack.us/img39/237/therift1990s4.jpg 
http://img36.imageshack.us/img36/3149/therift1990s5.jpg